# AST/ASF file generated using VICON BodyLanguage
# -----------------------------------------------
:version 1.10
:name VICON
:units
  mass 1.0
  length 0.45
  angle deg
:documentation
   .ast/.asf automatically generated from VICON data using
   VICON BodyBuilder and BodyLanguage model FoxedUp or BRILLIANT.MOD
:root
   order TX TY TZ RX RY RZ
   axis XYZ
   position 0 0 0  
   orientation 0 0 0 
:bonedata
  begin
     id 1 
     name lhipjoint
     direction 0.646657 -0.683706 0.338203 
     length 2.4948 
     axis 0 0 0  XYZ
  end
  begin
     id 2 
     name lfemur
     direction 0.34202 -0.939693 0  
     length 6.79491  
     axis 0 0 20  XYZ
    dof rx ry rz
    limits (-160.0 20.0)
           (-70.0 70.0)
           (-60.0 70.0)
  end
  begin
     id 3 
     name ltibia
     direction 0.34202 -0.939693 0   
     length 7.56807   
     axis 0 0 20   XYZ
    dof rx
    limits (-10.0 170.0)
  end
  begin
     id 4 
     name lfoot
     direction 0.0679796 -0.186772 0.980048   
     length 2.53018   
     axis -90 7.62852e-016 20   XYZ
    dof rx rz
    limits (-45.0 90.0)
           (-70.0 20.0)
  end
  begin
     id 5 
     name ltoes
     direction 1.53625e-011 -4.21881e-011 1   
     length 1.26912   
     axis -90 7.62852e-016 20   XYZ
    dof rx
    limits (-90.0 20.0)
  end
  begin
     id 6 
     name rhipjoint
     direction -0.618868 -0.704065 0.348274   
     length 2.42265  
     axis 0 0 0  XYZ 
  end
  begin
     id 7 
     name rfemur
     direction -0.34202 -0.939693 0   
     length 6.73814   
     axis 0 0 -20   XYZ
    dof rx ry rz
    limits (-160.0 20.0)
           (-70.0 70.0)
           (-70.0 60.0)
  end
  begin
     id 8 
     name rtibia
     direction -0.34202 -0.939693 0   
     length 7.66799   
     axis 0 0 -20   XYZ
    dof rx
    limits (-10.0 170.0)
 end
 begin
     id 9 
     name rfoot
     direction -0.0727352 -0.199838 0.977125   
     length 2.57224  
     axis -90 -7.62852e-016 -20   XYZ
    dof rx rz
    limits (-45.0 90.0)
           (-20.0 70.0)
  end
  begin
     id 10 
     name rtoes
     direction -1.53501e-011 -4.21858e-011 1   
     length 1.28858   
     axis -90 -7.62852e-016 -20   XYZ
    dof rx
    limits (-90.0 20.0)
  end
  begin
     id 11 
     name lowerback
     direction -0.0172471 0.995767 -0.0902851   
     length 2.20206   
     axis 0 0 0   XYZ
    dof rx ry rz
    limits (-20.0 45.0)
           (-30.0 30.0)
           (-30.0 30.0)
  end
  begin
     id 12 
     name upperback
     direction -0.000110737 0.999714 0.0239043   
     length 2.19523   
     axis 0 0 0   XYZ
    dof rx ry rz
    limits (-20.0 45.0)
           (-30.0 30.0)
           (-30.0 30.0)
  end
  begin
     id 13 
     name thorax
     direction 0.00704869 0.997783 0.0661741   
     length 2.21977   
     axis 0 0 0   XYZ
    dof rx ry rz
    limits (-20.0 45.0)
           (-30.0 30.0)
           (-30.0 30.0)
  end
  begin
     id 14 
     name lowerneck
     direction -0.00407501 0.995527 0.0943846   
     length 1.83142   
     axis 0 0 0   XYZ
    dof rx ry rz
    limits (-20.0 45.0)
           (-30.0 30.0)
           (-30.0 30.0)
  end
  begin
     id 15 
     name upperneck
     direction 0.0640586 0.986486 -0.150807   
     length 1.84616   
     axis 0 0 0   XYZ
    dof rx ry rz
    limits (-20.0 45.0)
           (-30.0 30.0)
           (-30.0 30.0)
  end
  begin
     id 16
     name head
     direction 0.0188017 0.99791 -0.0618239  
     length 1.85932  
     axis 0 0 0   XYZ
    dof rx ry rz
    limits (-20.0 45.0)
           (-30.0 30.0)
           (-30.0 30.0)
  end
  begin
     id 17 
     name lclavicle
     direction 0.976074 0.206905 0.066852  
     length 3.81043  
     axis 0 0 0   XYZ
    dof ry rz
    limits (-20.0 10.0)
           (0.0 20.0)
  end
  begin
     id 18 
     name lhumerus
     direction 1 -4.48971e-011 1.86916e-027   
     length 5.37587   
     axis 180 -30 -90   XYZ
    dof rx ry rz
    limits (-60.0 90.0)
           (-90.0 90.0)
           (-90.0 90.0)
  end
  begin
     id 19
     name lradius
     direction 1 -4.48968e-011 1.69187e-027   
     length 3.35977   
     axis 180 -30 -90   XYZ
    dof rx
    limits (-10.0 170.0)
  end
  begin
     id 20
     name lwrist
     direction 1 -4.48968e-011 5.8978e-027   
     length 1.67988   
     axis -3.27506e-015 90 90   XYZ
    dof ry
    limits (-180.0 0.0)
 end
  begin
     id 21 
     name lhand
     direction 1 -4.49028e-011 1.18071e-026   
     length 0.561859   
     axis -7.52654e-015 90 90   XYZ
    dof rx rz
    limits (-90.0 90.0)
           (-45.0 45.0)
  end
  begin
     id 22 
     name lfingers
     direction 1 -4.48927e-011 2.35758e-026   
     length 0.452985   
     axis -1.50534e-014 90 90   XYZ
    dof rx
    limits (0.0 90.0)
  end
  begin
     id 23
     name lthumb
     direction 0.707107 -6.34898e-011 0.707107   
     length 0.650399   
     axis -90 45 5.69224e-014   XYZ
    dof rx rz
    limits (-45.0 45.0)
           (-45.0 45.0)
  end
  begin
     id 24 
     name rclavicle
     direction -0.988403 0.151789 0.00439714   
     length 3.6942  
     axis 0 0 0   XYZ 
    dof ry rz
    limits (-10.0 20.0)
           (-20.0 0.0)
  end
  begin
     id 25 
     name rhumerus
     direction -1 -4.48978e-011 1.62495e-027  
     length 5.22819   
     axis 180 30 90   XYZ
    dof rx ry rz
    limits (-90.0 60.0)
           (-90.0 90.0)
           (-90.0 90.0)
  end
  begin
     id 26 
     name rradius
     direction -1 -4.48961e-011 3.47796e-027   
     length 3.40764   
     axis 180 30 90   XYZ
    dof rx
    limits (-10.0 170.0)
  end
  begin
     id 27 
     name rwrist
     direction -1 -4.48949e-011 5.89602e-027   
     length 1.70382   
     axis -3.27506e-015 -90 -90   XYZ
    dof ry
    limits (-180.0 0.0)
  end
  begin
     id 28
     name rhand
     direction -1 -4.48977e-011 1.17973e-026   
     length 0.583255   
     axis -7.52654e-015 -90 -90   XYZ
    dof rx rz
    limits (-90.0 90.0)
           (-45.0 45.0)
  end
  begin
     id 29
     name rfingers
     direction -1 -4.49099e-011 2.36408e-026   
     length 0.470235   
     axis -1.50534e-014 -90 -90   XYZ
    dof rx
    limits (0.0 90.0)
  end
  begin
     id 30
     name rthumb
     direction -0.707107 -6.35011e-011 0.707107   
     length 0.675167   
     axis -90 -45 -5.69224e-014   XYZ
    dof rx rz
    limits (-45.0 45.0)
           (-45.0 45.0)
  end
:hierarchy
  begin
    root lhipjoint rhipjoint lowerback
    lhipjoint lfemur
    lfemur ltibia
    ltibia lfoot
    lfoot ltoes
    rhipjoint rfemur
    rfemur rtibia
    rtibia rfoot
    rfoot rtoes
    lowerback upperback
    upperback thorax
    thorax lowerneck lclavicle rclavicle
    lowerneck upperneck
    upperneck head
    lclavicle lhumerus
    lhumerus lradius
    lradius lwrist
    lwrist lhand lthumb
    lhand lfingers
    rclavicle rhumerus
    rhumerus rradius
    rradius rwrist
    rwrist rhand rthumb
    rhand rfingers
  end

#!OML:ASF G:\JayActor3\Patient Classification 1\Patient 1\Session 2\male.ASF
:FULLY-SPECIFIED
:DEGREES
1
root 49.957 16.6109 -7.26191 28.0208 -85.9025 -27.8775
lowerback -1.9832 0.42931 -0.0517382
upperback 3.62202 0.51258 0.65067
thorax 4.84263 0.224141 0.73148
lowerneck -9.91598 -3.57004 -4.51411
upperneck 0.985742 -4.61792 7.76017
head 2.40919 -2.12982 3.12037
rclavicle 5.11871e-015 -9.64106e-015
rhumerus -29.0381 -7.54721 -83.1881
rradius 26.955
rwrist 0.218365
rhand -21.6796 7.75102
rfingers 7.12502
rthumb 4.71814 -22.1764
lclavicle 5.11871e-015 -9.64106e-015
lhumerus -25.7389 3.80043 87.4995
lradius 24.9197
lwrist 8.03669
lhand -20.837 17.2342
lfingers 7.12502
lthumb 5.53171 47.142
rfemur -10.1782 -0.234674 21.1097
rtibia 35.2111
rfoot -26.1149 -8.82299
rtoes 17.3501
lfemur -6.25384 1.63817 -17.5597
ltibia 26.7164
lfoot -19.1695 14.1538
ltoes -4.78402
2
root 49.9488 16.6089 -7.26001 25.905 -85.95 -25.8092
lowerback -2.01879 0.38905 -0.207076
upperback 3.54175 0.468729 0.632251
thorax 4.77854 0.19823 0.796653
lowerneck -9.51781 -3.52988 -4.58806
upperneck 0.931722 -4.56173 7.76275
head 2.31613 -2.10957 3.14134
rclavicle 1.55301e-014 4.27387e-015
rhumerus -29.2483 -7.37818 -83.158
rradius 26.9554
rwrist 0.210999
rhand -21.652 7.80471
rfingers 7.12502
rthumb 4.74478 -22.1222
lclavicle 1.55301e-014 4.27387e-015
lhumerus -25.8232 3.95828 87.4705
lradius 24.6323
lwrist 7.93999
lhand -20.8089 17.0191
lfingers 7.12502
lthumb 5.55883 46.9262
rfemur -10.1066 -0.393442 20.9017
rtibia 35.2702
rfoot -26.1233 -8.67168
rtoes 17.3095
lfemur -6.09955 1.64584 -17.7406
ltibia 26.6095
lfoot -19.1192 14.1758
ltoes -4.96815
3
root 49.9464 16.6082 -7.25985 25.7021 -85.938 -25.6157
lowerback -2.04405 0.387443 -0.21349
upperback 3.55331 0.466954 0.626336
thorax 4.80503 0.197074 0.794313
lowerneck -9.5503 -3.53944 -4.58552
upperneck 0.960393 -4.57663 7.78489
head 2.33359 -2.11545 3.14758
rclavicle -1.49089e-015 -2.18663e-015
rhumerus -29.2285 -7.37733 -83.1572
rradius 26.9613
rwrist 0.200268
rhand -21.5988 7.76268
rfingers 7.12502
rthumb 4.79617 -22.163
lclavicle -1.49089e-015 -2.18663e-015
lhumerus -25.9535 3.91653 87.4718
lradius 24.9014
lwrist 7.97198
lhand -20.7858 17.1154
lfingers 7.12502
lthumb 5.58119 47.0219
rfemur -10.0865 -0.41792 20.8921
rtibia 35.2806
rfoot -26.1273 -8.68549
rtoes 17.2143
lfemur -6.0567 1.65445 -17.7467
ltibia 26.5895
lfoot -19.1499 14.1235
ltoes -4.81875
4
root 49.9452 16.6083 -7.25976 25.9778 -85.9426 -25.8826
lowerback -2.04893 0.395944 -0.19478
upperback 3.5385 0.477821 0.627121
thorax 4.79233 0.203352 0.785262
lowerneck -9.58856 -3.55185 -4.58081
upperneck 1.02076 -4.59561 7.78549
head 2.36216 -2.12317 3.1458
rclavicle -1.23868e-014 2.18663e-015
rhumerus -29.2351 -7.373 -83.156
rradius 26.9697
rwrist 0.184944
rhand -21.5613 7.85327
rfingers 7.12502
rthumb 4.83236 -22.0716
lclavicle -1.23868e-014 2.18663e-015
lhumerus -25.855 4.02242 87.4445
lradius 24.7037
lwrist 7.84609
lhand -20.8235 17.1024
lfingers 7.12502
lthumb 5.54476 47.0099
rfemur -10.1009 -0.412151 20.9075
rtibia 35.2942
rfoot -26.1325 -8.66057
rtoes 17.2473
lfemur -6.05601 1.66204 -17.7309
ltibia 26.5605
lfoot -19.1024 14.1658
ltoes -4.99589
5
root 49.9425 16.608 -7.25949 25.7177 -85.9451 -25.6275
lowerback -2.06389 0.39304 -0.2134
upperback 3.52411 0.475313 0.624424
thorax 4.78574 0.201698 0.792803
lowerneck -9.56561 -3.55629 -4.59108
upperneck 1.05157 -4.60269 7.79442
head 2.36949 -2.12637 3.15077
rclavicle -2.44257e-014 -5.1684e-015
rhumerus -29.2581 -7.34343 -83.15
rradius 26.9742
rwrist 0.173017
rhand -21.5269 7.90952
rfingers 7.12502
rthumb 4.8656 -22.0146
lclavicle -2.44257e-014 -5.1684e-015
lhumerus -25.833 4.12501 87.4185
lradius 24.6055
lwrist 7.73768
lhand -20.8216 17.0611
lfingers 7.12502
lthumb 5.54662 46.9685
rfemur -10.0836 -0.440724 20.8823
rtibia 35.2963
rfoot -26.132 -8.6361
rtoes 17.2275
lfemur -6.04395 1.67422 -17.7503
ltibia 26.5554
lfoot -19.0677 14.1868
ltoes -5.16807
6
root 49.9404 16.6079 -7.2594 25.6189 -85.945 -25.5293
lowerback -2.0749 0.392321 -0.222433
upperback 3.51357 0.475058 0.624473
thorax 4.78094 0.201397 0.797935
lowerneck -9.57089 -3.56326 -4.59958
upperneck 1.08652 -4.61299 7.80464
head 2.38366 -2.1306 3.15548
rclavicle 1.90833e-014 -8.24956e-015
rhumerus -29.2673 -7.3181 -83.1461
rradius 26.9795
rwrist 0.159387
rhand -21.4964 7.96355
rfingers 7.12502
rthumb 4.89501 -21.9599
lclavicle 1.90833e-014 -8.24956e-015
lhumerus -25.7983 4.22838 87.3928
lradius 24.513
lwrist 7.62547
lhand -20.8156 17.0237
lfingers 7.12502
lthumb 5.55235 46.9309
rfemur -10.0736 -0.456211 20.8726
rtibia 35.2953
rfoot -26.1314 -8.62331
rtoes 17.2087
lfemur -6.04558 1.68566 -17.7564
ltibia 26.5558
lfoot -19.0266 14.2139
ltoes -5.35823
7
root 49.9383 16.6078 -7.25938 25.5246 -85.947 -25.4341
lowerback -2.08257 0.391694 -0.233273
upperback 3.50001 0.475063 0.62459
thorax 4.77107 0.201204 0.804119
lowerneck -9.5702 -3.56927 -4.60847
upperneck 1.11636 -4.6219 7.8151
head 2.39493 -2.13433 3.16045
rclavicle -6.79595e-015 -6.4605e-015
rhumerus -29.2803 -7.28922 -83.1429
rradius 26.985
rwrist 0.146767
rhand -21.4756 8.01113
rfingers 7.12502
rthumb 4.91508 -21.9119
lclavicle -6.79595e-015 -6.4605e-015
lhumerus -25.7685 4.32166 87.3688
lradius 24.4235
lwrist 7.5238
lhand -20.8041 16.9849
lfingers 7.12502
lthumb 5.56347 46.8919
rfemur -10.068 -0.467593 20.8628
rtibia 35.2975
rfoot -26.1337 -8.60876
rtoes 17.2067
lfemur -6.04697 1.69631 -17.7631
ltibia 26.5512
lfoot -18.9856 14.2409
ltoes -5.53292
8
root 49.9365 16.6077 -7.25941 25.452 -85.9496 -25.3603
lowerback -2.08864 0.391492 -0.243832
upperback 3.48688 0.475594 0.624979
thorax 4.76073 0.201272 0.810448
lowerneck -9.56845 -3.57465 -4.61563
upperneck 1.14034 -4.62995 7.82553
head 2.40392 -2.13773 3.16511
rclavicle -1.42504e-014 -9.93923e-017
rhumerus -29.2921 -7.25905 -83.1408
rradius 26.9914
rwrist 0.133382
rhand -21.4623 8.03703
rfingers 7.12502
rthumb 4.92796 -21.8857
lclavicle -1.42504e-014 -9.93923e-017
lhumerus -25.7547 4.38281 87.3522
lradius 24.3681
lwrist 7.45348
lhand -20.7875 16.9528
lfingers 7.12502
lthumb 5.57948 46.8594
rfemur -10.0633 -0.473681 20.8555
rtibia 35.2987
rfoot -26.1357 -8.59958
rtoes 17.2089
lfemur -6.04803 1.70624 -17.768
ltibia 26.5495
lfoot -18.958 14.2574
ltoes -5.65439
9
root 49.9348 16.6075 -7.25938 25.4371 -85.9544 -25.344
lowerback -2.09141 0.392129 -0.249727
upperback 3.47284 0.477068 0.624763
thorax 4.74758 0.202004 0.813561
lowerneck -9.56762 -3.57883 -4.61971
upperneck 1.1618 -4.63662 7.83536
head 2.412 -2.14048 3.16903
rclavicle -1.35298e-014 7.95139e-015
rhumerus -29.3043 -7.23097 -83.1403
rradius 26.9974
rwrist 0.122996
rhand -21.4533 8.05002
rfingers 7.12502
rthumb 4.93671 -21.8725
lclavicle -1.35298e-014 7.95139e-015
lhumerus -25.7618 4.41198 87.3412
lradius 24.3509
lwrist 7.41414
lhand -20.7678 16.939
lfingers 7.12502
lthumb 5.59853 46.845
rfemur -10.0602 -0.475456 20.8516
rtibia 35.2999
rfoot -26.1364 -8.59223
rtoes 17.2124
lfemur -6.04656 1.71174 -17.7706
ltibia 26.5489
lfoot -18.9476 14.2662
ltoes -5.70901
10
root 49.9334 16.6074 -7.25935 25.483 -85.9574 -25.3877
lowerback -2.0942 0.393635 -0.250715
upperback 3.4599 0.479427 0.625151
thorax 4.73561 0.203323 0.814609
lowerneck -9.56724 -3.58285 -4.62012
upperneck 1.17792 -4.64319 7.84388
head 2.41818 -2.14328 3.17178
rclavicle 5.20567e-015 3.97569e-016
rhumerus -29.3131 -7.20703 -83.1401
rradius 27.0026
rwrist 0.116777
rhand -21.4545 8.04247
rfingers 7.12502
rthumb 4.93555 -21.8801
lclavicle 5.20567e-015 3.97569e-016
lhumerus -25.777 4.40927 87.3381
lradius 24.355
lwrist 7.40598
lhand -20.7527 16.9325
lfingers 7.12502
lthumb 5.61316 46.8381
rfemur -10.0583 -0.472187 20.854
rtibia 35.3004
rfoot -26.1378 -8.59241
rtoes 17.2104
lfemur -6.04281 1.71399 -17.7681
ltibia 26.5496
lfoot -18.9567 14.2621
ltoes -5.68967
11
root 49.932 16.6072 -7.25928 25.534 -85.9578 -25.438
lowerback -2.09809 0.394232 -0.24936
upperback 3.4503 0.480383 0.62566
thorax 4.72781 0.203976 0.81441
lowerneck -9.57559 -3.58601 -4.62163
upperneck 1.19635 -4.6485 7.85416
head 2.42679 -2.14524 3.17536
rclavicle 4.09993e-016 -5.76476e-015
rhumerus -29.3147 -7.18589 -83.1406
rradius 27.0039
rwrist 0.114386
rhand -21.457 8.0386
rfingers 7.12502
rthumb 4.93314 -21.884
lclavicle 4.09993e-016 -5.76476e-015
lhumerus -25.7869 4.41404 87.3337
lradius 24.3568
lwrist 7.3915
lhand -20.7412 16.9247
lfingers 7.12502
lthumb 5.62426 46.8301
rfemur -10.0535 -0.470549 20.8578
rtibia 35.2998
rfoot -26.1415 -8.59096
rtoes 17.2157
lfemur -6.03732 1.71683 -17.7637
ltibia 26.5516
lfoot -18.9686 14.2537
ltoes -5.6633
12
root 49.9306 16.607 -7.25919 25.583 -85.9565 -25.4868
lowerback -2.10356 0.393425 -0.248403
upperback 3.44317 0.479368 0.627473
thorax 4.72348 0.203569 0.815689
lowerneck -9.58696 -3.58824 -4.62483
upperneck 1.21317 -4.65221 7.86456
head 2.43537 -2.14637 3.17938
rclavicle -1.15047e-014 3.47873e-015
rhumerus -29.3109 -7.1634 -83.1411
rradius 27.0024
rwrist 0.114702
rhand -21.4602 8.03451
rfingers 7.12502
rthumb 4.92998 -21.8881
lclavicle -1.15047e-014 3.47873e-015
lhumerus -25.7921 4.42605 87.3299
lradius 24.355
lwrist 7.37601
lhand -20.7376 16.9133
lfingers 7.12502
lthumb 5.62773 46.8186
rfemur -10.047 -0.472579 20.862
rtibia 35.2982
rfoot -26.1435 -8.59272
rtoes 17.1989
lfemur -6.03191 1.71659 -17.7591
ltibia 26.5548
lfoot -18.9781 14.2521
ltoes -5.65603
13
root 49.9291 16.6068 -7.25916 25.6073 -85.9536 -25.5113
lowerback -2.10874 0.392345 -0.248574
upperback 3.43698 0.478027 0.629015
thorax 4.71998 0.202954 0.817304
lowerneck -9.59855 -3.59118 -4.62894
upperneck 1.22842 -4.65674 7.8756
head 2.44358 -2.14793 3.18374
rclavicle -6.41081e-015 -2.88238e-015
rhumerus -29.305 -7.14659 -83.1409
rradius 26.9981
rwrist 0.119105
rhand -21.4619 8.03572
rfingers 7.12502
rthumb 4.92832 -21.887
lclavicle -6.41081e-015 -2.88238e-015
lhumerus -25.7981 4.43599 87.3275
lradius 24.3562
lwrist 7.36575
lhand -20.7432 16.9013
lfingers 7.12502
lthumb 5.62225 46.8067
rfemur -10.0394 -0.475487 20.8656
rtibia 35.2962
rfoot -26.1475 -8.59767
rtoes 17.1741
lfemur -6.02724 1.71488 -17.7556
ltibia 26.5578
lfoot -18.9821 14.2564
ltoes -5.67616
